<svg>
    <path fill="#f58219" d="M46,53C10,27 61,24 56,0C70,19 20,29 46,53" />
    <path fill="#f58219" d="M50,57C68,46 25,38 68,19C34,42 82,41 50,57" />
    <path fill="#4e7896" d="M35,54C16,60 22,61 67,58C20,69 1,57 35,54" />
    <path fill="#4e7896" d="M59,67C33,72 27,68 30,66C16,72 43,76 63,70" />
    <path fill="#4e7896" d="M57,78C31,80 31,80 33,76C18,82 45,88 62,81" />
    <path fill="#4e7896" d="M25,83C-4,90 46,95 77,84C99,93 -30,99 25,83" />
    <path fill="#4e7896" d="M23,96C42,103 84,96 82,90C69,95 46,98 23,96" />
    <path fill="#4e7896" d="M70,55C86,53 78,67 67,72C98,68 78,43 70,55" />
</svg>